<svg xmlns="http://www.w3.org/2000/svg" viewBox="0 0 500 500"><g id="freepik--Background--inject-2"><path id="freepik--background--inject-2" d="M63.14,79.13c-66.67,71.14-83.2,248.29,52.8,330.68,122.57,74.25,260.22,56.15,322.9-3.5C517.79,331.19,508.06,169.15,384,72.1,291.53-.29,148-11.4,63.14,79.13Z" style="fill:#37474f"></path></g><g id="freepik--Glasses--inject-2"><g id="freepik--Glass--inject-2"><path d="M154.5,410.54c-13.29-14-39.27-21.6-58-17.07-9.37,2.27-15.15,7.16-16.93,13.22l-1.25,4.24c-1.79,6.06.42,13.31,7.08,20.29,13.3,14,39.27,21.61,58,17.07,9.35-2.27,15.13-7.14,16.92-13.19l1.26-4.28C163.37,424.76,161.15,417.52,154.5,410.54Z" style="fill:#BA68C8"></path><path d="M154.5,410.54c-13.29-14-39.27-21.6-58-17.07-9.37,2.27-15.15,7.16-16.93,13.22l-1.25,4.24c-1.79,6.06.42,13.31,7.08,20.29,13.3,14,39.27,21.61,58,17.07,9.35-2.27,15.13-7.14,16.92-13.19l1.26-4.28C163.37,424.76,161.15,417.52,154.5,410.54Z" style="fill:#fff;opacity:0.30000000000000004"></path><ellipse cx="120.57" cy="418.75" rx="24.69" ry="42.76" transform="translate(-315.19 416.23) rotate(-73.61)" style="fill:#BA68C8"></ellipse><ellipse cx="120.57" cy="418.75" rx="24.69" ry="42.76" transform="translate(-315.19 416.23) rotate(-73.61)" style="fill:#fff;opacity:0.55"></ellipse><path d="M111.81,403.67c-10.58-.74-15.26,5.46-11.53,12.32,5.76,10.6,27,14.91,35.11,8.91Z" style="fill:#BA68C8;opacity:0.30000000000000004"></path><path d="M143.59,406.09c10.46,6.18,15.52,29.56-8.26,32.41-17.4,2.08-44-9.5-47.35-13.82,5.17,5.71,22.63,18.72,47.17,17.89C167.08,441.48,163.22,413.68,143.59,406.09Z" style="fill:#fff;opacity:0.30000000000000004"></path><path d="M251.54,136.72l-44.16-13-44.18-13s-32.54,77.71-42.76,115.8a54.35,54.35,0,0,0,13.08,53.15,39.44,39.44,0,0,1,9.78,38.53l-23.2,78.85a8.41,8.41,0,0,1-5.84,5.75,20.14,20.14,0,0,0-8.18,4.51l-.45.44c-2.76,2.91-2.44,7.2,1.45,11.28,5.66,5.94,16.71,9.19,24.68,7.26,5.48-1.33,8.08-4.76,7.33-8.69a10.25,10.25,0,0,0-.28-1.09,20.06,20.06,0,0,0-4.26-7.7,8.51,8.51,0,0,1-1.83-8.05l23.2-78.85A39.46,39.46,0,0,1,185,294.82a54.34,54.34,0,0,0,39.78-37.59C236.81,219.67,251.54,136.72,251.54,136.72Z" style="fill:#BA68C8"></path><path d="M251.54,136.72l-44.16-13-44.18-13s-32.54,77.71-42.76,115.8a54.35,54.35,0,0,0,13.08,53.15,39.44,39.44,0,0,1,9.78,38.53l-23.2,78.85a8.41,8.41,0,0,1-5.84,5.75,20.14,20.14,0,0,0-8.18,4.51l-.45.44c-2.76,2.91-2.44,7.2,1.45,11.28,5.66,5.94,16.71,9.19,24.68,7.26,5.48-1.33,8.08-4.76,7.33-8.69a10.25,10.25,0,0,0-.28-1.09,20.06,20.06,0,0,0-4.26-7.7,8.51,8.51,0,0,1-1.83-8.05l23.2-78.85A39.46,39.46,0,0,1,185,294.82a54.34,54.34,0,0,0,39.78-37.59C236.81,219.67,251.54,136.72,251.54,136.72Z" style="fill:#fff;opacity:0.5"></path><path d="M142.37,283.86c-8.2-7.69-17-13.47-22.19-27.58a54.69,54.69,0,0,0,13.34,23.4,39.44,39.44,0,0,1,9.78,38.53C148.71,299.8,150.64,291.61,142.37,283.86Z" style="fill:#BA68C8;opacity:0.2"></path><path d="M159.48,286.49c-26.62-7.83-42-35.38-34.39-61.4l0-.09c8.62-32.19,34.23-94.44,40.44-109.37l40.69,12,40.67,12c-2.86,15.91-15,82.12-25.23,113.84l0,.09C214,279.53,186.11,294.32,159.48,286.49Z" style="fill:#BA68C8"></path><path d="M159.48,286.49c-26.62-7.83-42-35.38-34.39-61.4l0-.09c8.62-32.19,34.23-94.44,40.44-109.37l40.69,12,40.67,12c-2.86,15.91-15,82.12-25.23,113.84l0,.09C214,279.53,186.11,294.32,159.48,286.49Z" style="fill:#fff;opacity:0.30000000000000004"></path><path d="M220.14,252.92l0,.12c-7.41,25.17-34.4,39.48-60.16,31.9s-40.71-34.22-33.31-59.39l0-.1c3.07-11.48,8.36-26.92,14.15-42.64.05-.14.1-.29.16-.44,1.66-4.35,6.12-8.5,13.39-11.81,18.75-8.56,49-8.34,67.67.49,10.58,5,15.12,11.73,13.62,18.17C231,211.94,225.27,237,220.14,252.92Z" style="fill:#BA68C8"></path><path d="M220.14,252.92l0,.12c-7.41,25.17-34.4,39.48-60.16,31.9s-40.71-34.22-33.31-59.39l0-.1c3.07-11.48,8.36-26.92,14.15-42.64.05-.14.1-.29.16-.44,1.66-4.35,6.12-8.5,13.39-11.81,18.75-8.56,49-8.34,67.67.49,10.58,5,15.12,11.73,13.62,18.17C231,211.94,225.27,237,220.14,252.92Z" style="fill:#fff;opacity:0.85"></path><path d="M217.45,232.94c3.3-13.09,8.76-37.63,12.9-56.61a35.85,35.85,0,0,0-8.31-5.28c-1.28-.61-2.63-1.18-4-1.7-9.42,43.66-15.35,76.24-27.68,93.83-6.21,8.87-18,13.69-26.51,22.72a49.42,49.42,0,0,0,13.71.93c2.1-1.13,4.4-2.31,6.9-3.61C206.09,272,211.57,256.2,217.45,232.94Z" style="fill:#f5f5f5"></path><path d="M221.81,202.53c-18.75,8.56-49,8.34-67.67-.49-11.16-5.29-15.59-12.48-13.32-19.23.05-.14.1-.29.16-.44,1.66-4.35,6.12-8.5,13.39-11.81,18.75-8.56,49-8.34,67.67.49,10.58,5,15.12,11.73,13.62,18.17C234.52,194.11,229.9,198.83,221.81,202.53Z" style="fill:#fafafa"></path><ellipse cx="207.38" cy="123.7" rx="26.58" ry="46.05" transform="translate(30.17 287.73) rotate(-73.61)" style="fill:#BA68C8"></ellipse><ellipse cx="207.38" cy="123.7" rx="26.58" ry="46.05" transform="translate(30.17 287.73) rotate(-73.61)" style="fill:#fff;opacity:0.6000000000000001"></ellipse><path d="M201,145.32c-11.13-3.27-20.81-8.8-27.25-15.56-5.89-6.18-8.26-12.54-6.68-17.91s7-9.43,15.31-11.43c9.08-2.2,20.21-1.61,31.34,1.66s20.8,8.81,27.25,15.57c5.88,6.18,8.25,12.54,6.68,17.91s-7,9.42-15.32,11.43C223.27,149.19,212.14,148.6,201,145.32Z" style="fill:#BA68C8"></path><path d="M201,145.32c-11.13-3.27-20.81-8.8-27.25-15.56-5.89-6.18-8.26-12.54-6.68-17.91s7-9.43,15.31-11.43c9.08-2.2,20.21-1.61,31.34,1.66s20.8,8.81,27.25,15.57c5.88,6.18,8.25,12.54,6.68,17.91s-7,9.42-15.32,11.43C223.27,149.19,212.14,148.6,201,145.32Z" style="fill:#fff;opacity:0.30000000000000004"></path><path d="M221.91,151.73c-11.88,52.55-17.63,91.56-31.57,111.45-8.85,12.64-29,17-34.93,37.15s-25.29,86-28.52,97c-2.6,8.81-1.29,11.16-.65,16.27s-6.56,9.31-15.76,4.53c2.26,3.11,12.92,7.67,19.48,6.13s7.42-7,3.76-12.79c-3.22-5.08-5.72-3.85-1.46-18.34s21.92-74.49,24.1-81.9c4.81-16.35,12.24-19.77,28.08-28,21.65-11.21,27.13-27,33-50.28S236,150.18,236,150.18Z" style="fill:#fff;opacity:0.30000000000000004"></path></g><g id="freepik--glass--inject-2"><path d="M381.91,436.45c-18.28-6.14-44.81-.77-59.27,12-7.22,6.38-10.06,13.4-8.8,19.59l.87,4.33c1.25,6.2,6.58,11.57,15.73,14.65,18.28,6.14,44.81.77,59.27-12,7.22-6.37,10.05-13.38,8.81-19.56l-.88-4.38C396.39,444.89,391.05,439.52,381.91,436.45Z" style="fill:#BA68C8"></path><path d="M381.91,436.45c-18.28-6.14-44.81-.77-59.27,12-7.22,6.38-10.06,13.4-8.8,19.59l.87,4.33c1.25,6.2,6.58,11.57,15.73,14.65,18.28,6.14,44.81.77,59.27-12,7.22-6.37,10.05-13.38,8.81-19.56l-.88-4.38C396.39,444.89,391.05,439.52,381.91,436.45Z" style="fill:#fff;opacity:0.30000000000000004"></path><ellipse cx="355.74" cy="459.55" rx="42.76" ry="24.69" transform="translate(-84.03 79.63) rotate(-11.43)" style="fill:#BA68C8"></ellipse><ellipse cx="355.74" cy="459.55" rx="42.76" ry="24.69" transform="translate(-84.03 79.63) rotate(-11.43)" style="fill:#fff;opacity:0.55"></ellipse><path d="M341,450.3c-9.7,4.29-10.95,12-4.45,16.29,10,6.68,30.84.58,35.2-8.52Z" style="fill:#BA68C8;opacity:0.30000000000000004"></path><path d="M370.18,437.61c12.14.58,27.53,18.9,7.83,32.51-14.42,10-43.36,12.15-48.34,9.89,7.25,2.63,28.76,6,50.08-6.2C407.47,458,391.08,435.16,370.18,437.61Z" style="fill:#fff;opacity:0.30000000000000004"></path><path d="M339.91,149l-45.14,9.09-45.12,9.16s7.5,83.91,16.24,122.37a54.35,54.35,0,0,0,36.38,40.9A39.44,39.44,0,0,1,328.9,360l16.29,80.56a8.4,8.4,0,0,1-2.48,7.81,20.26,20.26,0,0,0-5.13,7.81c-.06.2-.13.4-.19.6-1.09,3.86,1.2,7.5,6.55,9.3,7.77,2.61,19.07.32,25.21-5.1,4.23-3.74,4.92-8,2.43-11.11-.24-.29-.49-.56-.76-.83a20.15,20.15,0,0,0-7.36-4.83,8.52,8.52,0,0,1-5.38-6.26l-16.29-80.56a39.46,39.46,0,0,1,13.07-37.54,54.31,54.31,0,0,0,17.63-51.82C365.6,229.23,339.91,149,339.91,149Z" style="fill:#BA68C8"></path><path d="M339.91,149l-45.14,9.09-45.12,9.16s7.5,83.91,16.24,122.37a54.35,54.35,0,0,0,36.38,40.9A39.44,39.44,0,0,1,328.9,360l16.29,80.56a8.4,8.4,0,0,1-2.48,7.81,20.26,20.26,0,0,0-5.13,7.81c-.06.2-.13.4-.19.6-1.09,3.86,1.2,7.5,6.55,9.3,7.77,2.61,19.07.32,25.21-5.1,4.23-3.74,4.92-8,2.43-11.11-.24-.29-.49-.56-.76-.83a20.15,20.15,0,0,0-7.36-4.83,8.52,8.52,0,0,1-5.38-6.26l-16.29-80.56a39.46,39.46,0,0,1,13.07-37.54,54.31,54.31,0,0,0,17.63-51.82C365.6,229.23,339.91,149,339.91,149Z" style="fill:#fff;opacity:0.5"></path><path d="M312,330.08c-10.83-3-21.28-4-32.49-14a54.74,54.74,0,0,0,22.72,14.46A39.44,39.44,0,0,1,328.9,360C325.1,341.22,323,333.08,312,330.08Z" style="fill:#BA68C8;opacity:0.2"></path><path d="M328.41,324.42c-27.2,5.5-53.71-11.65-59.08-38.24l0-.09c-7.41-32.49-13.82-99.5-15.29-115.6l41.56-8.43,41.57-8.38c4.89,15.41,25,79.64,30.82,112.46l0,.09C373.37,292.82,355.61,318.92,328.41,324.42Z" style="fill:#BA68C8"></path><path d="M328.41,324.42c-27.2,5.5-53.71-11.65-59.08-38.24l0-.09c-7.41-32.49-13.82-99.5-15.29-115.6l41.56-8.43,41.57-8.38c4.89,15.41,25,79.64,30.82,112.46l0,.09C373.37,292.82,355.61,318.92,328.41,324.42Z" style="fill:#fff;opacity:0.30000000000000004"></path><path d="M366.38,266.44v.11c5.2,25.71-12,51-38.31,56.29s-52-11.27-57.17-37l0-.12c-3.52-15.48-6.85-39.09-9.51-61.12,0-.21-.05-.42-.08-.63-.51-6,4.2-12,14.07-16.4,18.08-8.08,46.89-7.87,65.34.3,1,.47,1.92,1,2.83,1.49,6.38,3.6,10.35,7.71,11.93,11.82.15.37.27.73.38,1.1.05.16.09.31.13.46C360.37,238.9,364.31,254.74,366.38,266.44Z" style="fill:#BA68C8"></path><path d="M366.38,266.44v.11c5.2,25.71-12,51-38.31,56.29s-52-11.27-57.17-37l0-.12c-3.52-15.48-6.85-39.09-9.51-61.12,0-.21-.05-.42-.08-.63-.51-6,4.2-12,14.07-16.4,18.08-8.08,46.89-7.87,65.34.3,1,.47,1.92,1,2.83,1.49,6.38,3.6,10.35,7.71,11.93,11.82.15.37.27.73.38,1.1.05.16.09.31.13.46C360.37,238.9,364.31,254.74,366.38,266.44Z" style="fill:#fff;opacity:0.85"></path><path d="M354.67,250c-2.34-9.64-6.55-25.3-10.68-40.36l-.46-.27c-.91-.52-1.86-1-2.83-1.49a66.32,66.32,0,0,0-12.27-4c10.67,37.73,18.86,65.93,16.39,85.49-1.36,10.74-9.52,20.5-12.84,32.46h0a48.08,48.08,0,0,0,6.36-2.31l.34-.15q2.1-.94,4.08-2.08l.45-.25,1.2-.72.09-.06c1.34-2,2.82-4.09,4.43-6.41C362.86,289.87,360.33,273.32,354.67,250Z" style="fill:#f5f5f5"></path><path d="M341.81,239.76c-18.61,8.31-48.58,7.85-66.93-1-7.92-3.83-12.38-8.61-13.39-13.46-.05-.22-.09-.43-.12-.65s-.05-.42-.08-.63c-.51-6,4.2-12,14.07-16.4,18.08-8.08,46.89-7.87,65.34.3.55.24,1.08.49,1.6.74,7.11,3.44,11.43,7.64,13,12,.05.15.11.29.15.44a1.13,1.13,0,0,1,0,.15C357.45,227.87,352.89,234.82,341.81,239.76Z" style="fill:#fafafa"></path><path d="M320.71,176.11c14,52,27.15,89.2,24.11,113.3-1.94,15.3-17.71,28.61-13.55,49.16s17.76,87.83,20,99.06c1.82,9,4.08,10.47,7,14.69s-1.46,11.3-11.82,11.37c3.45,1.7,15,.75,20.09-3.67s3.29-9.67-2.65-13.07c-5.22-3-6.86-.73-9.85-15.54s-15.39-76.11-16.92-83.67c-3.38-16.71,1.59-23.2,11.78-37.86,13.9-20,11.37-36.56,5.71-59.88s-22.23-81.84-22.23-81.84Z" style="fill:#fff;opacity:0.30000000000000004"></path><ellipse cx="294.77" cy="158.1" rx="46.05" ry="26.58" transform="translate(-25.49 61.56) rotate(-11.43)" style="fill:#BA68C8"></ellipse><ellipse cx="294.77" cy="158.1" rx="46.05" ry="26.58" transform="translate(-25.49 61.56) rotate(-11.43)" style="fill:#fff;opacity:0.6000000000000001"></ellipse><path d="M299.24,180.19c-11.37,2.3-22.51,1.93-31.36-1.05-8.09-2.71-13.16-7.23-14.27-12.71s1.81-11.62,8.21-17.26c7-6.19,17.12-10.86,28.49-13.16s22.51-1.92,31.36,1.05c8.09,2.72,13.16,7.24,14.27,12.72s-1.81,11.61-8.21,17.26C320.73,173.22,310.61,177.89,299.24,180.19Z" style="fill:#BA68C8"></path><path d="M299.24,180.19c-11.37,2.3-22.51,1.93-31.36-1.05-8.09-2.71-13.16-7.23-14.27-12.71s1.81-11.62,8.21-17.26c7-6.19,17.12-10.86,28.49-13.16s22.51-1.92,31.36,1.05c8.09,2.72,13.16,7.24,14.27,12.72s-1.81,11.61-8.21,17.26C320.73,173.22,310.61,177.89,299.24,180.19Z" style="fill:#fff;opacity:0.30000000000000004"></path></g></g><g id="freepik--Bubbles--inject-2"><g id="freepik--Sparkle--inject-2"><path d="M232.62,76.39a6.67,6.67,0,1,1-5.72-7.5A6.67,6.67,0,0,1,232.62,76.39Z" style="fill:#BA68C8"></path><path d="M232.62,76.39a6.67,6.67,0,1,1-5.72-7.5A6.67,6.67,0,0,1,232.62,76.39Z" style="fill:#fff;opacity:0.5"></path><path d="M223,77.71c-1.78-2.56-1.29-7,1.64-8.73a6.66,6.66,0,1,0,6.86,10.27C230.41,80.5,225.19,80.82,223,77.71Z" style="fill:#BA68C8;opacity:0.30000000000000004"></path><path d="M231.43,76.76c-.36.88-.69.22-1-.76a5.62,5.62,0,0,0-2-2.3c-1-.7-2.63-1.37-2.07-2.71s3-.47,4.29,1.15A5.25,5.25,0,0,1,231.43,76.76Z" style="fill:#fff;opacity:0.5"></path><path d="M250.82,88.33a4.11,4.11,0,1,1-4.88-3.17A4.11,4.11,0,0,1,250.82,88.33Z" style="fill:#BA68C8"></path><path d="M250.82,88.33a4.11,4.11,0,1,1-4.88-3.17A4.11,4.11,0,0,1,250.82,88.33Z" style="fill:#fff;opacity:0.5"></path><path d="M245.51,91.09a4,4,0,0,1-.86-5.41,4.11,4.11,0,1,0,6.12,4.54C250.39,91.18,247.42,92.45,245.51,91.09Z" style="fill:#BA68C8;opacity:0.30000000000000004"></path><path d="M250.2,88.79c0,.59-.35.28-.75-.22a3.42,3.42,0,0,0-1.65-.92c-.73-.2-1.82-.25-1.77-1.15s1.67-.9,2.73-.22A3.25,3.25,0,0,1,250.2,88.79Z" style="fill:#fff;opacity:0.5"></path><path d="M233.38,50.91a4.6,4.6,0,1,1,.47-6.5A4.61,4.61,0,0,1,233.38,50.91Z" style="fill:#BA68C8"></path><path d="M233.38,50.91a4.6,4.6,0,1,1,.47-6.5A4.61,4.61,0,0,1,233.38,50.91Z" style="fill:#fff;opacity:0.5"></path><path d="M227.81,47.21a4.42,4.42,0,0,1,4.84-3.78,4.61,4.61,0,1,0-1.15,8.46C230.36,52,227.51,49.81,227.81,47.21Z" style="fill:#BA68C8;opacity:0.30000000000000004"></path><path d="M232.6,50.56c-.59.29-.46-.2-.19-.86a3.91,3.91,0,0,0,0-2.12c-.2-.82-.74-1.91.16-2.35s1.8,1.15,1.7,2.55A3.63,3.63,0,0,1,232.6,50.56Z" style="fill:#fff;opacity:0.5"></path><path d="M244.2,49a1.95,1.95,0,1,1,2.34-1.45A1.95,1.95,0,0,1,244.2,49Z" style="fill:#BA68C8"></path><path d="M244.2,49a1.95,1.95,0,1,1,2.34-1.45A1.95,1.95,0,0,1,244.2,49Z" style="fill:#fff;opacity:0.5"></path><path d="M244.09,46.14a1.87,1.87,0,0,1,2.49.71,1.95,1.95,0,1,0-3.18,1.71A2,2,0,0,1,244.09,46.14Z" style="fill:#BA68C8;opacity:0.30000000000000004"></path><path d="M244.13,48.61c-.25-.13,0-.21.25-.28a1.7,1.7,0,0,0,.72-.52c.23-.28.47-.73.85-.53s.05.9-.46,1.21A1.52,1.52,0,0,1,244.13,48.61Z" style="fill:#fff;opacity:0.5"></path><path d="M268.62,48.25a5.53,5.53,0,1,1,6.65-4.13A5.53,5.53,0,0,1,268.62,48.25Z" style="fill:#BA68C8"></path><path d="M268.62,48.25a5.53,5.53,0,1,1,6.65-4.13A5.53,5.53,0,0,1,268.62,48.25Z" style="fill:#fff;opacity:0.5"></path><path d="M268.28,40.22c2.26-1.27,5.89-.52,7.09,2a5.53,5.53,0,1,0-9,4.86C265.4,46.1,265.54,41.77,268.28,40.22Z" style="fill:#BA68C8;opacity:0.30000000000000004"></path><path d="M268.41,47.24c-.7-.36-.13-.59.71-.79A4.78,4.78,0,0,0,271.18,45c.65-.78,1.34-2.07,2.4-1.5s.15,2.55-1.29,3.45A4.37,4.37,0,0,1,268.41,47.24Z" style="fill:#fff;opacity:0.5"></path><path d="M276.74,65.38a1.83,1.83,0,1,1-2.08-3,1.83,1.83,0,0,1,2.08,3Z" style="fill:#BA68C8"></path><path d="M276.74,65.38a1.83,1.83,0,1,1-2.08-3,1.83,1.83,0,0,1,2.08,3Z" style="fill:#fff;opacity:0.5"></path><path d="M274.7,63.67a1.75,1.75,0,0,1,2.08-1.28,1.84,1.84,0,0,0-2.6,2.52,1.85,1.85,0,0,0,1.77.78A1.84,1.84,0,0,1,274.7,63.67Z" style="fill:#BA68C8;opacity:0.30000000000000004"></path><path d="M276.44,65.21c-.24.09-.17-.1,0-.35a1.65,1.65,0,0,0,.1-.84c-.05-.33-.21-.79.17-.92s.65.53.55,1.08A1.42,1.42,0,0,1,276.44,65.21Z" style="fill:#fff;opacity:0.5"></path><path d="M284.6,53.15a2.69,2.69,0,1,1,1.19,3.62A2.7,2.7,0,0,1,284.6,53.15Z" style="fill:#BA68C8"></path><path d="M284.6,53.15a2.69,2.69,0,1,1,1.19,3.62A2.7,2.7,0,0,1,284.6,53.15Z" style="fill:#fff;opacity:0.5"></path><path d="M288.44,53.92A2.58,2.58,0,0,1,286.66,57,2.69,2.69,0,0,0,288.22,52a2.72,2.72,0,0,0-2.82.24A2.74,2.74,0,0,1,288.44,53.92Z" style="fill:#BA68C8;opacity:0.30000000000000004"></path><path d="M285.11,53.17c.25-.29.29,0,.29.42a2.32,2.32,0,0,0,.46,1.15c.29.4.82.87.43,1.3s-1.22-.22-1.48-1A2.1,2.1,0,0,1,285.11,53.17Z" style="fill:#fff;opacity:0.5"></path><path d="M302.47,49.91a4.66,4.66,0,1,1-1.92,6.31A4.67,4.67,0,0,1,302.47,49.91Z" style="fill:#BA68C8"></path><path d="M302.47,49.91a4.66,4.66,0,1,1-1.92,6.31A4.67,4.67,0,0,1,302.47,49.91Z" style="fill:#fff;opacity:0.5"></path><path d="M307.14,54.82c-.72,2-3.44,3.59-5.62,2.64a4.66,4.66,0,1,0,3-8.09C305.71,49.49,308,52.32,307.14,54.82Z" style="fill:#BA68C8;opacity:0.30000000000000004"></path><path d="M303.17,50.44c.64-.16.41.3,0,.89a4,4,0,0,0-.49,2.09c0,.85.3,2-.68,2.28s-1.51-1.53-1.1-2.9A3.65,3.65,0,0,1,303.17,50.44Z" style="fill:#fff;opacity:0.5"></path><path d="M301,86.81a3.27,3.27,0,1,1-1.34,4.42A3.27,3.27,0,0,1,301,86.81Z" style="fill:#BA68C8"></path><path d="M301,86.81a3.27,3.27,0,1,1-1.34,4.42A3.27,3.27,0,0,1,301,86.81Z" style="fill:#fff;opacity:0.5"></path><path d="M304.31,90.25a3.14,3.14,0,0,1-3.93,1.85,3.26,3.26,0,1,0,2.11-5.67C303.31,86.52,304.93,88.49,304.31,90.25Z" style="fill:#BA68C8;opacity:0.30000000000000004"></path><path d="M301.53,87.18c.45-.11.29.21,0,.63a2.86,2.86,0,0,0-.34,1.45c0,.6.21,1.44-.48,1.6s-1.06-1.07-.77-2A2.6,2.6,0,0,1,301.53,87.18Z" style="fill:#fff;opacity:0.5"></path><path d="M322.89,81.62a2.05,2.05,0,1,1,.06,2.9A2.06,2.06,0,0,1,322.89,81.62Z" style="fill:#BA68C8"></path><path d="M322.89,81.62a2.05,2.05,0,1,1,.06,2.9A2.06,2.06,0,0,1,322.89,81.62Z" style="fill:#fff;opacity:0.5"></path><path d="M325.51,83a2,2,0,0,1-2,1.87,2,2,0,0,0,2.26-3.34,2.07,2.07,0,0,0-2.11-.45A2.06,2.06,0,0,1,325.51,83Z" style="fill:#BA68C8;opacity:0.30000000000000004"></path><path d="M323.25,81.75c.25-.16.22.07.12.37a1.74,1.74,0,0,0,.09.94c.12.35.4.81,0,1s-.84-.43-.86-1.06A1.6,1.6,0,0,1,323.25,81.75Z" style="fill:#fff;opacity:0.5"></path><path d="M295.73,101.4a6.67,6.67,0,1,1-4.12,8.49A6.68,6.68,0,0,1,295.73,101.4Z" style="fill:#BA68C8"></path><path d="M295.73,101.4a6.67,6.67,0,1,1-4.12,8.49A6.68,6.68,0,0,1,295.73,101.4Z" style="fill:#fff;opacity:0.5"></path><path d="M301.23,109.38c-1.48,2.74-5.67,4.31-8.53,2.47a6.67,6.67,0,1,0,6.08-10.75C300.4,101.53,303,106,301.23,109.38Z" style="fill:#BA68C8;opacity:0.30000000000000004"></path><path d="M296.6,102.3c.94-.08.51.52-.22,1.26a5.65,5.65,0,0,0-1.14,2.84c-.17,1.21,0,3-1.49,3.06-1.6.11-1.79-2.5-.9-4.33A5.27,5.27,0,0,1,296.6,102.3Z" style="fill:#fff;opacity:0.5"></path><path d="M324.62,104.07a5.23,5.23,0,1,1-4.68,5.72A5.22,5.22,0,0,1,324.62,104.07Z" style="fill:#BA68C8"></path><path d="M324.62,104.07a5.23,5.23,0,1,1-4.68,5.72A5.22,5.22,0,0,1,324.62,104.07Z" style="fill:#fff;opacity:0.5"></path><path d="M327.37,111.14c-1.63,1.83-5.11,2.26-7,.34a5.22,5.22,0,1,0,6.59-7.09C328.16,105,329.35,108.93,327.37,111.14Z" style="fill:#BA68C8;opacity:0.30000000000000004"></path><path d="M325.12,104.91c.73.11.3.49-.39.92a4.42,4.42,0,0,0-1.39,2c-.35.9-.57,2.26-1.69,2.07s-.91-2.23.1-3.47A4.09,4.09,0,0,1,325.12,104.91Z" style="fill:#fff;opacity:0.5"></path><path d="M262.8,126.2c-2.75-10.53,2-26.11,8.46-32.66s11.58-6,13.3-3.5,1.24,5.61-6.23,10.58S263.52,112.16,262.8,126.2Z" style="fill:#BA68C8"></path><path d="M278.33,100.62c7.47-5,7.95-8.08,6.23-10.58a4,4,0,0,0-2.21-1.52c1.11.48,1.71,1.48,1.4,3.73-.38,2.71-5.44,5.67-12.78,11.41-6.39,5-9.65,15.85-8.17,22.54C263.52,112.16,270.86,105.59,278.33,100.62Z" style="opacity:0.15"></path><path d="M259.43,97.49c5.38-8.43,5.87-19.49,3.2-27.28C260.4,63.7,251.61,53.32,247,57c-4,3.22-1.56,7,4.63,13.23S260.86,86.86,259.43,97.49Z" style="fill:#BA68C8"></path><path d="M254.67,69.91c-4.82-4.62-8.6-6.37-9.57-9.72-.2,2.59,2.29,5.74,6.57,10,6.2,6.19,9.19,16.65,7.76,27.28C262.46,86.14,259.5,74.54,254.67,69.91Z" style="opacity:0.15"></path><path d="M274,84.37c1.68-5.7,5.9-11.55,14.41-14.32,7.33-2.38,15.71.77,15.06,4.88s-6.67,1.77-13,2C284.25,77.12,278.12,79.08,274,84.37Z" style="fill:#BA68C8"></path><path d="M290.46,76.91c6.37-.21,12.4,2.13,13-2a3.15,3.15,0,0,0-.75-2.47c.08.33.52,2.52-2.4,3.07-3.15.6-10.09-1-14.92.06s-10.06,5.34-11.4,8.78C278.12,79.08,284.25,77.12,290.46,76.91Z" style="opacity:0.15"></path></g></g><g id="freepik--Sparkles--inject-2"><g id="freepik--Shine--inject-2"><path d="M81.94,192.43c0,2.12,0,4.16-3.11,4.63,3.23,0,3,2,3.14,4.55.09-2.55.32-4.38,2.83-4.5C82.2,196.68,82.27,195.47,81.94,192.43Z" style="fill:#BA68C8"></path><path d="M129,61.84C129.11,68,128.88,74,120,75.37c9.44-.12,8.72,5.83,9.19,13.28.25-7.45.9-12.8,8.26-13.15C129.79,74.24,130,70.71,129,61.84Z" style="fill:#BA68C8"></path><path d="M145.43,88.9c0,2.67-.07,5.23-3.92,5.83,4.07-.06,3.76,2.5,4,5.71.11-3.21.39-5.51,3.56-5.66C145.75,94.24,145.84,92.72,145.43,88.9Z" style="fill:#455a64"></path><path d="M85.78,99.87c.06,5.4-.13,10.6-7.94,11.81,8.25-.11,7.62,5.09,8,11.59.22-6.5.79-11.17,7.21-11.48C86.44,110.69,86.62,107.61,85.78,99.87Z" style="fill:#455a64"></path><path d="M64.91,168.25c0,4-.1,7.84-5.86,8.73,5.89-.08,5.63,3.76,5.93,8.57.16-4.81.58-8.26,5.33-8.49C65.4,176.25,65.53,174,64.91,168.25Z" style="fill:#ebebeb"></path><path d="M119.76,134.07c0,3.12-.08,6.12-4.58,6.82,4.76-.06,4.4,2.94,4.63,6.7.13-3.76.46-6.46,4.17-6.63C120.14,140.32,120.24,138.54,119.76,134.07Z" style="fill:#ebebeb"></path><path d="M98.35,262c.05-4.64-.12-9.1-6.82-10.14,7.08.09,6.54-4.37,6.89-10,.19,5.59.68,9.6,6.2,9.86C98.91,252.71,99.06,255.35,98.35,262Z" style="fill:#455a64"></path></g><g id="freepik--shine--inject-2"><path d="M399.34,299.3c0,4.25.11,8.34,6.25,9.3-6.49-.09-6,4-6.31,9.12-.18-5.12-.63-8.79-5.68-9C398.83,307.82,398.69,305.39,399.34,299.3Z" style="fill:#455a64"></path><path d="M417.81,147.66c-.09,8.42.21,16.53,12.38,18.42-12.86-.17-11.88,7.93-12.51,18.08-.35-10.15-1.24-17.43-11.26-17.91C416.78,164.53,416.51,159.73,417.81,147.66Z" style="fill:#455a64"></path><path d="M396,191c0,3.29.08,6.46,4.83,7.19-5-.06-4.64,3.1-4.88,7.06-.14-4-.48-6.8-4.4-7C395.63,197.59,395.52,195.71,396,191Z" style="fill:#BA68C8"></path><path d="M429.47,241.91c-.08,6.55.16,12.84,9.61,14.31-10-.13-9.23,6.16-9.72,14-.26-7.89-1-13.54-8.74-13.92C428.67,255,428.46,251.29,429.47,241.91Z" style="fill:#BA68C8"></path><path d="M446.45,223.46c0,3.06.07,6,4.49,6.69-4.67-.06-4.31,2.88-4.54,6.57-.13-3.69-.45-6.33-4.09-6.51C446.08,229.59,446,227.84,446.45,223.46Z" style="fill:#ebebeb"></path><path d="M379.73,137.8c0-4.12.1-8.1,6.07-9-6.3.08-5.83-3.89-6.13-8.86-.17,5-.61,8.54-5.52,8.78C379.23,129.54,379.1,131.89,379.73,137.8Z" style="fill:#ebebeb"></path></g></g></svg>