<svg xmlns="http://www.w3.org/2000/svg" viewBox="0 0 500 500"><g id="freepik--Floor--inject-37"><ellipse id="freepik--floor--inject-37" cx="250" cy="368.65" rx="233.35" ry="120.34" style="fill:#f0f0f0"></ellipse></g><g id="freepik--Shadow--inject-37"><ellipse id="freepik--shadow--inject-37" cx="250.4" cy="377.45" rx="65.17" ry="37.62" style="fill:#e0e0e0"></ellipse><ellipse id="freepik--shadow--inject-37" cx="140.52" cy="377.35" rx="74.48" ry="39.03" style="fill:#e0e0e0"></ellipse><ellipse id="freepik--shadow--inject-37" cx="349.42" cy="377.44" rx="76.42" ry="39.03" style="fill:#e0e0e0"></ellipse></g><g id="freepik--Characters--inject-37"><g id="freepik--Arms--inject-37"><path d="M196.62,132c5.4,11.2,16.66,31.53,16.66,31.53,7.53,1.71,24.34,3,31.21,3.87a5.08,5.08,0,0,0,3.44-.81c2.7-1.77,4.79-2.05,7.64-3,2.23-.77,3.17-1.83,3.59-1.43a2.53,2.53,0,0,1-.23,3.53,18.53,18.53,0,0,1-3.53,2.64,20.91,20.91,0,0,0,9.3.16c5.94-1.56,8.75,1.3,4.73,7.75-1.44,2.32-7.11,6-18.6,5-3.31-.29-8.75-.71-13-.7-10.76,0-17.46.16-27.26-.18-4.24-.15-6-.45-9.05-4.6a404.59,404.59,0,0,1-25-37.3V114.91C185.53,114.63,192,122.37,196.62,132Z" style="fill:#ffa8a7"></path><path d="M331.56,109.18c-7.55,1.12-12.95,7.27-17.85,23.34-3.86,12.66-9.86,24.85-13.61,37.39-11-.22-23.19-.95-33.34-1.63a5.81,5.81,0,0,1-3.75-1.56,37.06,37.06,0,0,0-8.76-4.71c-1.75-.69-3.5-2.79-4.81-2.11s-.75,3.34.26,4.82a29.34,29.34,0,0,0,4.45,3.68c-4.5.48-7.5-.25-12-1-6-1-12.7-.5-7.67,8.18,3.44,5.94,15,8,21.9,8.12,3.39.06,8.87,0,13.68.42,8.08.73,19.56,2.9,33.85,4.11,5.63.48,8.64-.54,11.19-5.59l.91-1.89h0c10.91-22.51,15.06-31.36,20.48-52.55C334.83,122.65,333.14,114.73,331.56,109.18Z" style="fill:#b16668"></path><path d="M335.09,108.35s-9.25.22-14,5.78c-6.46,7.54-14.95,36.58-14.95,36.58s4.65,7.72,23.73,5.18Z" style="fill:#BA68C8"></path><path d="M335.09,108.35s-9.25.22-14,5.78c-6.46,7.54-14.95,36.58-14.95,36.58s4.65,7.72,23.73,5.18Z" style="opacity:0.1"></path></g><g id="freepik--character-boy-center--inject-37"><g id="freepik--Character--inject-37"><path d="M361.91,174.5c-4.3-.36-5.9.09-9.52-1a16.41,16.41,0,0,0,4.11-1.78c.86-.64,3.19-3.85,1.4-4.66a1.69,1.69,0,0,0-1.11,0c-1.06.32-2,.83-3.1,1.15-2.7.81-5.63.29-8.42.74-.93.15-1.84.4-2.78.49a20.51,20.51,0,0,1-6.32-.55c-5.37-2-36.61-12.6-36.61-12.6-4.94-7.05-12.38-20.47-16.38-26.34-6.18-9-9-14.63-19.06-15.77-1.68,5.61-4.58,9.43-5.69,15.86,4.11,5.55,26.58,37.51,27.41,38.74,2.18,3.22,3,4.53,6.78,5.65s29.09,5.08,42.37,7.7c3.53.75,7.24,2.75,8.73,3.16,11.32,3.16,17.84,3.54,22-1.31C372.36,176.3,367.74,175,361.91,174.5Z" style="fill:#ffbda7"></path><path d="M261.44,110.61c12.75-1.55,16.68,6.4,22,15.22,6.41,10.7,11.9,21.4,17.12,30.53,8.57,3.44,34.59,11.58,34.59,11.58a23.38,23.38,0,0,1-2.84,14.36c-4.87-.48-22.18-3.24-35.74-5.62-5.77-1-7.46-1.13-11.13-5.88-6.62-8.56-15.65-21.64-23.73-32.16C255.86,131.08,261.44,114.47,261.44,110.61Z" style="fill:#455a64"></path><path d="M133.75,193.59a23.47,23.47,0,0,1,2.43-7.26c1.49-2.92,3.7-5.78,6.87-6.61a9.77,9.77,0,0,1,5.17.24c1.48.42,2.85,1.47,4.41.94,10.05-3.38,23.47-11,33.49-15.21,6.22-13.07,14.08-26.28,17-31.56,7.32-13.21,13.21-18.22,20.31-19.66,2.47,5.37,4.15,13.5-1.67,24.34-3,5.94-9.42,19.31-15.85,31.34-5.84,10.91-11.31,11.95-16.37,13.57-9.68,3.1-19.43,5.79-28.07,8.56-5.14,1.65-12.4,3.55-15,4.42a26,26,0,0,1-7.57,1.41c-1.79.06-4.08.69-5-1.36a5.66,5.66,0,0,1-.22-3.11Z" style="fill:#ffbda7"></path><path d="M213.9,303.92c.25-11.78,3.79-20.51,4.07-23.78,0,0-.87-70-.87-81.37l59.7-2.43s-1.91,73.48-1.91,83.2-5.47,52-8,71c-3.45,4.51-7.48,6.43-12.91,2,0,0-.45-2.68-1.16-11.54-.81-10.15-3.63-27.24-3.72-37.18-.13-12.25,1-19,1.33-24.86.41-6.75-1.21-52.27-1.21-52.27s-7.48,43.42-9.34,58.17c-2.13,16.89-9,61.17-9,71.47,0,1.84,0,4,0,6.29,0,5.57-.15,7,.74,9.2,1.56,3.76-11.78,6.13-12.4,3.45l-1.44-11.06v-.32h0v-7C217.77,346.39,213.55,321,213.9,303.92Z" style="fill:#ffbda7"></path><path d="M293.22,370.13a4.48,4.48,0,0,1-.18,3.3c-.46,1-5.5,3.81-12.3,3.35a28.37,28.37,0,0,1-14.05-4.91c-2.59-1.72-5.29-2-8.65-2.23s-7.79-1.87-8.52-3.45.11-4.28.11-4.28Z" style="fill:#37474f"></path><path d="M265.8,348.93l.54-.12a2.06,2.06,0,0,1,.89,0,1.65,1.65,0,0,1,.84.56,17.56,17.56,0,0,1,1.74,2.73c1.42,2.32,4.41,4.24,7.68,6,2.22,1.19,4.39,2.12,6.69,3.15s5.44,1.69,7.27,2.93c2.66,1.79,3,6.31,0,8.09-2.62,1.54-9.52,3.21-16.75,1.16-3.94-1.12-8.31-5.33-13.49-5.73-3.29-.26-9.5-1.18-11.62-3.68-.78-1.11.26-4.62,1.12-7.65.94-3.31,2-8.49,3.15-8.2,0,.65-.08.82.35,1.26s.95.68,1.39,1.06a8.92,8.92,0,0,1,1.82,2.62,2,2,0,0,0,.93,1c.56.21,1-.14,1.46-.36a2.77,2.77,0,0,1,2-.14,11.72,11.72,0,0,0-.35-1.95,1.1,1.1,0,0,1,0-.62,1,1,0,0,1,.42-.48A10.5,10.5,0,0,1,265.8,348.93Z" style="fill:#BA68C8"></path><path d="M265.8,348.93l.54-.12a2.06,2.06,0,0,1,.89,0,1.65,1.65,0,0,1,.84.56,17.56,17.56,0,0,1,1.74,2.73c1.42,2.32,4.41,4.24,7.68,6,2.22,1.19,4.39,2.12,6.69,3.15s5.44,1.69,7.27,2.93c2.66,1.79,3,6.31,0,8.09-2.62,1.54-9.52,3.21-16.75,1.16-3.94-1.12-8.31-5.33-13.49-5.73-3.29-.26-9.5-1.18-11.62-3.68-.78-1.11.26-4.62,1.12-7.65.94-3.31,2-8.49,3.15-8.2,0,.65-.08.82.35,1.26s.95.68,1.39,1.06a8.92,8.92,0,0,1,1.82,2.62,2,2,0,0,0,.93,1c.56.21,1-.14,1.46-.36a2.77,2.77,0,0,1,2-.14,11.72,11.72,0,0,0-.35-1.95,1.1,1.1,0,0,1,0-.62,1,1,0,0,1,.42-.48A10.5,10.5,0,0,1,265.8,348.93Z" style="opacity:0.30000000000000004"></path><path d="M244.55,389.39c.41.38.29,3-.16,3.66s-3.21,3.08-8.15,3.43c-4.72.34-8.94-.3-11.71-2.06s-4.11-3.7-4.37-6.39,0-5.28-1.25-7.35-3.07-4.07-3.48-5.11c-.89-2.25,0-5.48,0-5.48Z" style="fill:#37474f"></path><path d="M231.63,365.91a10.25,10.25,0,0,0,.55,3,27,27,0,0,0,2.89,5.92,24.14,24.14,0,0,0,2,2.78c1.42,1.69,3.2,3.09,4.71,4.72a9.69,9.69,0,0,1,2.92,5.8c.2,3.7-3.82,5-6.92,5.51a22.61,22.61,0,0,1-10.05-.51,9.25,9.25,0,0,1-6.78-7.38c-.17-1-.11-2.08-.23-3.11a14.46,14.46,0,0,0-2.88-6.48,19.68,19.68,0,0,1-2.21-3.53c-1-2.29-.19-4.87.43-7.15.53-2,1.14-4.21,1.83-4,0,1,0,1.13.73,1.82.93.88,1,2.2,1.95,3a13.57,13.57,0,0,1-.69-2.63,1.52,1.52,0,0,1,.21-1.05,2.82,2.82,0,0,1,1.14-.61,22.83,22.83,0,0,1,4.49-1,13.48,13.48,0,0,1,4.39,0,1.9,1.9,0,0,1,1.11.64,2.24,2.24,0,0,1,.39,1.26C231.65,363.39,231.6,364.92,231.63,365.91Z" style="fill:#BA68C8"></path><path d="M231.63,365.91a10.25,10.25,0,0,0,.55,3,27,27,0,0,0,2.89,5.92,24.14,24.14,0,0,0,2,2.78c1.42,1.69,3.2,3.09,4.71,4.72a9.69,9.69,0,0,1,2.92,5.8c.2,3.7-3.82,5-6.92,5.51a22.61,22.61,0,0,1-10.05-.51,9.25,9.25,0,0,1-6.78-7.38c-.17-1-.11-2.08-.23-3.11a14.46,14.46,0,0,0-2.88-6.48,19.68,19.68,0,0,1-2.21-3.53c-1-2.29-.19-4.87.43-7.15.53-2,1.14-4.21,1.83-4,0,1,0,1.13.73,1.82.93.88,1,2.2,1.95,3a13.57,13.57,0,0,1-.69-2.63,1.52,1.52,0,0,1,.21-1.05,2.82,2.82,0,0,1,1.14-.61,22.83,22.83,0,0,1,4.49-1,13.48,13.48,0,0,1,4.39,0,1.9,1.9,0,0,1,1.11.64,2.24,2.24,0,0,1,.39,1.26C231.65,363.39,231.6,364.92,231.63,365.91Z" style="opacity:0.30000000000000004"></path><path d="M235.57,375.59c-1.38-1-4.47-1-6.16-.86a10.3,10.3,0,0,0-4.81,1.68,1.08,1.08,0,0,1-1.41-.11h0a1,1,0,0,1,.11-1.57,10.32,10.32,0,0,1,5.4-2c4.16-.3,5.38.42,5.38.42S236,374.37,235.57,375.59Z" style="fill:#f5f5f5"></path><path d="M238.74,379.39c-1.74-1-5.13-.88-6.82-.7a9.68,9.68,0,0,0-4.68,1.78,1.09,1.09,0,0,1-1.41-.11h0a1,1,0,0,1,.1-1.58,10.9,10.9,0,0,1,5.53-2.16c4.15-.29,5.24.56,5.24.56A3.45,3.45,0,0,1,238.74,379.39Z" style="fill:#f5f5f5"></path><path d="M227,368.75a10.34,10.34,0,0,1,5.23.43c.73.41,1.22,1.57.74,1.87a9.5,9.5,0,0,0-4.63-.64,13.74,13.74,0,0,0-4.5,1.24,12.28,12.28,0,0,0-1.14.58,1,1,0,0,1-1.37-.43h0a.93.93,0,0,1,.36-1.19A13.5,13.5,0,0,1,227,368.75Z" style="fill:#f5f5f5"></path><path d="M274.42,356.27a3.06,3.06,0,0,0-2.43-1.62c-1.5-.28-4.14.82-5.78,2.17a1.23,1.23,0,0,0,.17,2h0a1.22,1.22,0,0,0,1.4-.15A9.43,9.43,0,0,1,274.42,356.27Z" style="fill:#f5f5f5"></path><path d="M279.05,358.87a3.49,3.49,0,0,0-2.87-1.48s-3.91.11-6.33,2.36a1.2,1.2,0,0,0,.17,2h0a1.16,1.16,0,0,0,1.35-.15A9.35,9.35,0,0,1,279.05,358.87Z" style="fill:#f5f5f5"></path><path d="M284.18,361.21a3.94,3.94,0,0,0-3-1.34,10.55,10.55,0,0,0-6.06,2.39,1.2,1.2,0,0,0,.16,2h0a1.18,1.18,0,0,0,1.35-.15A9,9,0,0,1,284.18,361.21Z" style="fill:#f5f5f5"></path><path d="M276.8,196.34s-.08,49.2,0,57.89,0,25.31,0,33.35c0,0-2.59,4.45-15.14,4.43s-14.42-3.82-14.42-3.82l-.51-39.62-3.46,41.53a22.5,22.5,0,0,1-17.54,3.36c-10.33-2.23-11.85-5.3-11.85-5.3l2-91.63Z" style="fill:#BA68C8"></path><path d="M246.73,248.57l1.84-16.79s8.61-2.09,14.37-6.43a27,27,0,0,1-6.54,5.73c-3.5,2-5.17,2.77-5.17,2.77l-3.58,17.09-.44,31.66Z" style="opacity:0.1"></path><path d="M215.15,204.91c8.19,6,45.33,12.58,62.57,0,0,0-.4-48.15-1.75-73.64-.07-1.15-.14-2.27-.26-3.37,0-.36-.09-.72-.13-1.08a34.31,34.31,0,0,0-.87-4.51c-.07-.25-.14-.49-.22-.74-.17-.55-.35-1.09-.57-1.62-.11-.28-.23-.56-.36-.83a6.67,6.67,0,0,0-.37-.76.84.84,0,0,0-.06-.14q-.19-.37-.42-.72c-.15-.26-.3-.52-.48-.78l-.51-.69c-.19-.25-.4-.49-.61-.72s-.42-.45-.63-.66l-.45-.42c-.15-.13-.3-.26-.45-.37s-.42-.33-.62-.48a15.46,15.46,0,0,0-2.18-1.29l-.64-.29c-.05,0-.12,0-.15-.07l-.78-.29a13,13,0,0,0-1.33-.44c-.47-.13-.94-.24-1.44-.36s-1.18,0-1.84,0l-1.37,0c-.47,0-1,0-1.46.05-6.45.28-15.7,1.32-23.12,2.27l-1.45.2-1.28.15c-5.09.67-8.87,1.22-9.45,1.31l-.08,0c-1.67.42-3.22.82-4.46,1.19-3.41,1-.88.15-1.63,3.44-2.2,9.67.36,44.84.36,44.84Z" style="fill:#f0f0f0"></path><path d="M236.77,76.77l-2.29,2.51-1.17-12.92a6.13,6.13,0,0,0-5.08,1.79c-2.18,2.23-1,9.21,1.75,16,0,0,2.65,12.44,3.71,14.49a5.7,5.7,0,0,0,3.26,2.63Z" style="fill:#BA68C8"></path><path d="M236.77,76.77l-2.29,2.51-1.17-12.92a6.13,6.13,0,0,0-5.08,1.79c-2.18,2.23-1,9.21,1.75,16,0,0,2.65,12.44,3.71,14.49a5.7,5.7,0,0,0,3.26,2.63Z" style="opacity:0.4"></path><path d="M236.47,84.77c-1,.6-2.43-1.33-3.66-2.62s-5.26-3.05-7.27,1.18,1.77,10,4.94,11c5.47,1.72,6.29-1.79,6.29-1.79l.36,20.1c5.73,10.36,25.09,5,17.83-1.81v-5.11a56.75,56.75,0,0,0,8.24,0c4-.62,5.67-3.4,6.89-7.75,2-7,2.7-12.63,1-26.37-1.82-15.06-19.34-15.22-28.8-9.26S236.47,84.77,236.47,84.77Z" style="fill:#ffbda7"></path><path d="M234.13,58.13A48.14,48.14,0,0,1,244.46,55c7.64-1.66,15.42-3.19,22.4-6.71a4.82,4.82,0,0,1,2.74-.79c1.84.24,2.64,2.47,2.72,4.33a15.35,15.35,0,0,1-.67,5.08,2.92,2.92,0,0,1,4.11.07A5.06,5.06,0,0,1,277,61.29c-.45,3.42-3.07,6.26-6.17,7.78a24.13,24.13,0,0,1-10.07,2A69.38,69.38,0,0,1,246.32,70a10,10,0,0,0-3.48-.25,3.12,3.12,0,0,0-2.6,2.06c-.51,1.9-1,14.84-3.7,14.89-.49,0-2.38-3.24-3.6-4.41-1.55-1.46-3.1-12.54-3.37-14.59a1.1,1.1,0,0,0-.22-.43c-1.73-2.44.31-6.54,2.45-7.87A21,21,0,0,1,234.13,58.13Z" style="fill:#BA68C8"></path><path d="M234.13,58.13A48.14,48.14,0,0,1,244.46,55c7.64-1.66,15.42-3.19,22.4-6.71a4.82,4.82,0,0,1,2.74-.79c1.84.24,2.64,2.47,2.72,4.33a15.35,15.35,0,0,1-.67,5.08,2.92,2.92,0,0,1,4.11.07A5.06,5.06,0,0,1,277,61.29c-.45,3.42-3.07,6.26-6.17,7.78a24.13,24.13,0,0,1-10.07,2A69.38,69.38,0,0,1,246.32,70a10,10,0,0,0-3.48-.25,3.12,3.12,0,0,0-2.6,2.06c-.51,1.9-1,14.84-3.7,14.89-.49,0-2.38-3.24-3.6-4.41-1.55-1.46-3.1-12.54-3.37-14.59a1.1,1.1,0,0,0-.22-.43c-1.73-2.44.31-6.54,2.45-7.87A21,21,0,0,1,234.13,58.13Z" style="opacity:0.4"></path><path d="M230.32,67.43a3.64,3.64,0,0,1-5.55-4.72Z" style="fill:#BA68C8"></path><path d="M230.32,67.43a3.64,3.64,0,0,1-5.55-4.72Z" style="opacity:0.4"></path><path d="M255,105.73s-9-.86-12.11-2.53a10.32,10.32,0,0,1-4.34-4.29A14.15,14.15,0,0,0,241,104c2.29,2.93,14,5.09,14,5.09Z" style="fill:#f0997a"></path><path d="M252.2,82.52a1.8,1.8,0,1,1-1.8-1.87A1.83,1.83,0,0,1,252.2,82.52Z" style="fill:#263238"></path><path d="M250.29,75.74l-3.84,2.12a2.3,2.3,0,0,1,.89-3.06A2.13,2.13,0,0,1,250.29,75.74Z" style="fill:#263238"></path><path d="M253,94.94l5,1.89a2.64,2.64,0,0,1-3.41,1.66A2.82,2.82,0,0,1,253,94.94Z" style="fill:#f0997a"></path><path d="M268.07,77.23l-3.51-2.7a2.13,2.13,0,0,1,3.05-.46A2.32,2.32,0,0,1,268.07,77.23Z" style="fill:#263238"></path><path d="M267,82a1.8,1.8,0,1,1-1.8-1.87A1.84,1.84,0,0,1,267,82Z" style="fill:#263238"></path><polygon points="258.32 80.73 258.91 91.54 264.55 89.62 258.32 80.73" style="fill:#f0997a"></polygon><path d="M223.43,114.47c-8.28.78-13.89,2.89-21.05,16.8-4.14,8-16.26,33.78-16.26,33.78l-31.36,15.09s3.66,9.38,2.84,13.32c0,0,10.8-2.61,22.37-5.81s16.78-5,20.08-7.24c2.44-1.63,20.66-36,20.66-36C226.91,134.73,228.79,121.81,223.43,114.47Z" style="fill:#455a64"></path></g></g><g id="freepik--character-girl--inject-37"><path d="M168.81,106.83l-1.05-.09a26.3,26.3,0,0,1-24-28.37h0A25.35,25.35,0,0,1,171.07,55.2l2.94.25a25.33,25.33,0,0,1,23.16,27.34h0A26.29,26.29,0,0,1,168.81,106.83Z" style="fill:#263238"></path><path d="M149,101.42c-.51,0-1,.08-1.52.1-3.39.1-6.78-.45-10.17-.2-4.68.34-9.63,2.65-11.37,7-1.34,3.37-.62,7.49-2.73,10.44-1.44,2-3.87,3-6,4.33-7,4.45-9.58,14.52-3.6,21,8.33,9,23.1,3.12,28.81-5.81,2.28-3.57,3.62-7.86,6.83-10.63,3.47-3,8.5-3.63,12-6.54a11.78,11.78,0,0,0,4.06-10.78,20.78,20.78,0,0,0-3.35-7.58,13.71,13.71,0,0,0-3.07-3.69c-2.34-1.75-2.77-.16-5,1A14.07,14.07,0,0,1,149,101.42Z" style="fill:#263238"></path><path d="M93.91,351c.83,2.07.17,4.52-.1,9.95a91.31,91.31,0,0,0-.26,10.72c.09,1.28.43,2.46.62,3.71A4.43,4.43,0,0,0,95.43,378a2.72,2.72,0,0,0,2.39.84,2.56,2.56,0,0,0,1.63-1.21,20.13,20.13,0,0,0,1.64-3.65c.44,9.14,9.88,16.05,3.73,17.91a16.81,16.81,0,0,1-13-1.55,11.45,11.45,0,0,1-4-3.82c-2-4.17-1.55-8-1.36-11.46.43-7.67-.58-11.71-1-15.58C85.08,354.82,92.51,350.22,93.91,351Z" style="fill:#263238"></path><path d="M159.87,354.38a.83.83,0,0,0-.67.72c-.24,1-.57,2.91-1,4.62-.61,2.29-1.32,5.6-1.06,7.48s2.66,3.85,7.29,5.49c2.79,1,7.71,3.77,9.9,6,2.68,2.77,8.62,5.32,12.72,5.71,4.81.45,9.92-.51,11.3-3.91.58-1.43-1.71-3.17-7.68-6.53,0,0-3-1.84-4.71-3.06-8.55-6.18-11.39-9.55-13.61-15.43Z" style="fill:#263238"></path><path d="M175.38,360.41c-2.64-3.25-3-6.24-2.24-11.9s8.44-55,10.39-67.31c3.29-20.72,6.41-80.13,5.61-94.71l-55.89.82c-4.69,9.83-8.45,22.08-9.08,41.62-.47,14.91-3.41,55.25-3.41,55.25s-7.16,5.49-12.76,16.89c-5,10.08-12.17,45.51-12.17,45.51h0A32,32,0,0,1,93.91,351a8.86,8.86,0,0,0-2.34,5.09,88.16,88.16,0,0,0,.78,18.51c.48,3.17,2.3,5.31,5.34,6.75a4.89,4.89,0,0,0,2.16.5,1.64,1.64,0,0,0,1.08-.32c.56-.5.16-1.78.1-2.41a24.38,24.38,0,0,1-.09-3.08c.07-2,.29-4.46.55-6.45a66.14,66.14,0,0,1,3-13.19s.49-1,1.25-2.5h0s27.25-47.13,34.87-58.55c6-9,12-44.86,17.11-64.37l3.5,47.64a90.94,90.94,0,0,0-4.58,14.82c-1.57,8.69,2.41,43.42,3.48,55.75a24.51,24.51,0,0,1-.36,6.84h0c.31,5.33,4.18,7.22,8.09,10.48,1.95,1.62,10.58,7.65,15.93,9.09,4.35,1.18,6.14-.42,6.84-1.62A92.39,92.39,0,0,1,175.38,360.41Z" style="fill:#ffa8a7"></path><path d="M144.89,168.32S139.61,174,131,188.52c-5.76,9.76-8.47,46.79-8.47,46.79s3.79,10.41,31.95,10.54l2.9-12.43,1,12.39,2.13-.07c24.35-1,29.22-6.21,29.22-6.21s.88-41.62-1.9-68.08C179.31,176.68,154.21,176.68,144.89,168.32Z" style="fill:#455a64"></path><path d="M157.41,233.42l6.71-20.48s10.44-.44,18.89-5.86c0,0-2.15,7.52-16.57,8.84L159,236l-.58,9.84Z" style="fill:#263238"></path><path d="M136.72,237.71c-9.83-3-13.53-7.38-13.53-7.38h0l-.63,4.89s3.79,10.41,31.95,10.54l1.29-5.52A61.31,61.31,0,0,1,136.72,237.71Z" style="fill:#37474f"></path><path d="M189.76,239.53s0-2,.08-5.4a65.31,65.31,0,0,1-15.61,4.58A99.09,99.09,0,0,1,157.94,240l.47,5.84,2.13-.07C184.89,244.7,189.76,239.53,189.76,239.53Z" style="fill:#37474f"></path><path d="M195,135.3c-4.87-8.71-15.15-17.37-18.47-20.36l-20.39-1.16c-4-.06-7.22.24-9.34,1.2-4.39,2-5.09,6.16-5.55,11.13-.52,5.45-.7,7.85.22,17l2,11.67.31,1.79c.06.31.1.61.15.93a18.88,18.88,0,0,1-2.46,13c-5.24,8.61-10.36,15.23-12.4,22.61a19.24,19.24,0,0,0,6.48-3.86c3.19-2.69,5.08-3.91,7.71-7.15,0,0-.09,5.08,4.52,12a28.53,28.53,0,0,0,4.1,4.92c8.55,8.15,35.52,13.17,37.93-10.48,0,0-2-15.14-2.21-20.19,1-4.3,3.79-11.67,4-13.33C198.15,149.81,198.58,141.64,195,135.3Z" style="fill:#BA68C8"></path><path d="M181.81,153.44s-7.07,5.48-15.13,2.62a13.81,13.81,0,0,1-9.25-9.91s-.86,9.22,9.32,12.37C176.57,161.55,181.81,153.44,181.81,153.44Z" style="opacity:0.1"></path><path d="M188.08,66.76c2.76,1.95,5.74,9.54,4.12,24.79-1.37,12.93-5.83,15.78-8,16.53s-6.2-.15-10.1-1.14l-.64,7.78s4.94,6.79,4.3,10.33-8.25,3.76-13.08-.15a33.19,33.19,0,0,1-7.66-9.47l1.66-20.15s-2.81,2.69-6.94-.57a7.48,7.48,0,0,1-.52-11.28c2.75-2.37,7.47-.62,8.19,3,0,0,6.29.75,15.06-3.17A23.65,23.65,0,0,0,188.08,66.76Z" style="fill:#ffa8a7"></path><path d="M176.56,87A1.64,1.64,0,1,1,175,85.23,1.66,1.66,0,0,1,176.56,87Z" style="fill:#263238"></path><path d="M177.53,98.12l3.69,1.52a2,2,0,0,1-2.57,1.15A2.09,2.09,0,0,1,177.53,98.12Z" style="fill:#f28f8f"></path><path d="M190.32,83.08l-3.1-2.55a1.92,1.92,0,0,1,2.78-.34A2.11,2.11,0,0,1,190.32,83.08Z" style="fill:#263238"></path><path d="M189.25,86.84a1.64,1.64,0,1,1-1.58-1.75A1.67,1.67,0,0,1,189.25,86.84Z" style="fill:#263238"></path><polygon points="181.37 85.25 180.82 95.08 186.11 93.91 181.37 85.25" style="fill:#f28f8f"></polygon><path d="M174.08,106.94c-4.12-.89-12.49-4.06-13.54-7.55a8.82,8.82,0,0,0,2.65,4.57c2.37,2.4,10.68,5.58,10.68,5.58Z" style="fill:#f28f8f"></path><path d="M155.14,128.44c-.31-10.36-4.24-14.45-4.24-14.45-6.72-.22-15.25,0-21.23,10.42-3,5.23-20.42,34.36-20.42,34.36-3.89-3-23.1-19.29-24.31-20.49a8.45,8.45,0,0,1-2.22-4.47c0-1.57-.09-3.22-.17-4a24.43,24.43,0,0,0-1.77-6.76,16.91,16.91,0,0,1-.58-2.67.85.85,0,0,0-.3-.59.75.75,0,0,0-.57,0c-1.14.31-1.45.93-1.79,2.06a10.27,10.27,0,0,0,0,3.79c.11,1,.28,2-.4,2.39-1,.37-1.64-.68-2-1.18-1.42-2.37-5.18-9.37-6.88-12.07a3.76,3.76,0,0,0-1.48-1.53c-1.1-.48-1.93.22-2,1.42a3.35,3.35,0,0,0,.31,1.31c.85,2.18,3.58,7.5,4.16,8.92.21.52.5,1.46,0,1.72-.85.65-2.08-.42-2.94-1.28-3.59-3.57-4.54-4.26-7-6.5a1.92,1.92,0,0,0-2.57-.27,1.53,1.53,0,0,0-.12,2.08c.34.5,1.34,1.71,2.15,2.66,1.39,1.6,5.76,6.4,5.76,6.4-1.31.23-2.22,2.16-1,4.09a3.92,3.92,0,0,0,.21,4.52A15.54,15.54,0,0,0,70.46,144a10.85,10.85,0,0,1,5,3c3.5,3.73,16.51,17.71,25.84,26.69,2.82,2.71,7.15,6,10.36,6.09,2,.1,4.88-3.09,6.34-4.83,1.82-2.19,22.84-31.57,22.84-31.57l2,7.51C151.3,144.41,155.45,138.81,155.14,128.44Z" style="fill:#ffa8a7"></path><polygon points="140.83 143.42 145.96 136.58 141.97 147.66 140.83 143.42" style="fill:#f28f8f"></polygon></g><g id="freepik--character-boy--inject-37"><path d="M378.05,396.3c.39,1.53,1.2,5.87,9.27,5.87s12.68-3.3,14.27-7.4.67-7.13.53-10.71,2.51-5.84,3.09-7.77c.87-2.85-1.51-6.76-1.51-6.76Z" style="fill:#263238"></path><path d="M300.52,370a4.82,4.82,0,0,0,.37,3.88c.59.79,6,4.72,12.67,3.9a30.7,30.7,0,0,0,13.75-4.8c3.9-2.3,6.6-2.63,10.57-2.62s6.69-.74,7-1.74c.58-1.75.62-2.87-.23-2.84Z" style="fill:#263238"></path><path d="M400.88,363.31c.14,4.15-12.55,7.75-12.24,2.48l-4.37-15.32L398.45,349Z" style="fill:#b16668"></path><path d="M341.86,353.57c-4,2.86-7.65,3.21-12.33.86l-2.36-25.07h17.22Z" style="fill:#b16668"></path><path d="M378.81,191.24c3.29,30.26,9.16,87.23,9.16,87.23s5.19,7.91,7.12,22.51c2.39,18,4.76,55.65,4.76,55.65a16.67,16.67,0,0,1-14,1.43s-20.23-55.23-24-73C358.58,269.6,352.8,242,352.8,242l-7.23,39.13a67.65,67.65,0,0,1,2.33,21.1c-.35,8.33-4.26,39.87-4.26,39.87-1.17,3.45-12,3.21-15.47,1,0,0-5.54-53-6.27-61.78-1-11.52-2.74-90-2.74-90Z" style="fill:#37474f"></path><path d="M352.8,242l-4-18.61s-9-2.06-15.47-7.23c0,0,2.37,5.94,12.25,10.48L349.66,244l-3.55,34.09Z" style="fill:#263238"></path><path d="M388.64,365.79l-.45-1.6c-.53.52-.45,1-.47,2.41,0,1.13,0,2.22-.15,3.73a34.45,34.45,0,0,1-1.07,5.81c-1,4.42-2.22,6.18-5.33,11.64-.73,1.3-2.52,3.45-3,4.85s-.68,3.95,1,4.92c4.71,2.79,12,2,16.61-.14a9.9,9.9,0,0,0,5.8-9c0-1.13-.24-2.25-.28-3.37a15.92,15.92,0,0,1,1.91-7.4,20.8,20.8,0,0,0,1.7-4.12c.62-2.61-.61-5.25-1.63-7.59-.88-2-1.91-4.72-2.6-4.41l.27,1.77c-.71,1.1-3,2.42-5.65,2.95C393.5,366.59,388.83,367.12,388.64,365.79Z" style="fill:#455a64"></path><path d="M329,349.2c-.61,0-1.24.49-2.33,2.08a19.1,19.1,0,0,1-5.7,5.47c-4.06,2.86-10.47,5.74-17.07,8.2-3.59,1.35-4.27,3.94-3.08,6.26,1.86,1.87,8.19,6.21,18.6,3,6.46-2,8.73-5.28,13.35-5.87,3.26-.41,8.92.48,12.26-2.21,1.05-2.52.21-5.06-.13-8.56s-1.45-9.09-2.56-8.87l-.2,1.85c-.88,4.05-10.2,4.45-12.84,1.8Z" style="fill:#455a64"></path><path d="M354.19,107.35c10.34.64,23.86.51,24.48,11.11,1,16.27-2.15,50.41-2.15,50.41l3.35,28.06c-7.59,8.11-41.5,12.34-60.87.45,0,0,.08-55.57,1.6-64.78,2.74-16.57,9-23.84,15.09-24.31Z" style="fill:#BA68C8"></path><circle cx="333.32" cy="69.66" r="16.54" transform="translate(-7 57.84) rotate(-9.82)" style="fill:#263238"></circle><path d="M362.56,79.68s-1.92,12.73-2.87,14.86a5.7,5.7,0,0,1-3.13,2.85l-.35-8.85Z" style="fill:#263238"></path><path d="M358.12,61.88a6.17,6.17,0,0,1,5.23,1.5c2.34,2.12,1.53,9.24-.79,16.3l-5,.89Z" style="fill:#263238"></path><path d="M356,80.66c1,.54,2.37-1.48,3.54-2.86s5.13-3.41,7.42.75S365.81,88.77,362.67,90c-5.41,2.06-6.46-1.43-6.46-1.43l.83,20.54h0c-6.33,9.21-25.42,9.61-18,0l-.35-6.06s-4.95,1.06-7.41.83c-4.1-.39-6.84-3.44-8.34-7.76-2.4-6.93-3.5-12.59-2.65-26.56.92-15.33,18.6-16.55,28.52-11.11S356,80.66,356,80.66Z" style="fill:#b16668"></path><path d="M356.14,82.36c.51,0,2.25-3.34,3.44-4.56,1.65-1.69-1.46-15.92-1.46-15.92a7,7,0,0,0-1.67-7.68c-2.55-2.48-6.07-5.49-16.82-3.56C332,52,323.7,54.93,316.71,52a11.56,11.56,0,0,0,4.76,12s2.55,1.44,9.07,1.84,16.52-1.15,17.89-1.42c1.86-.37,2.37,1.42,3.67,6.33C353.25,75.09,354.43,82.43,356.14,82.36Z" style="fill:#263238"></path><path d="M358.17,63l5.92-3.65a3.37,3.37,0,0,0-4.72-1.25A3.66,3.66,0,0,0,358.17,63Z" style="fill:#263238"></path><path d="M338.65,103s9-2.37,12-4.25a10.47,10.47,0,0,0,4.12-4.59,14.29,14.29,0,0,1-2.18,5.26c-2.14,3.1-13.81,6-13.81,6Z" style="fill:#9a4a4d"></path><path d="M339.42,79.39a1.82,1.82,0,1,0,1.7-2A1.85,1.85,0,0,0,339.42,79.39Z" style="fill:#263238"></path><path d="M340.93,72.42l4,1.91a2.35,2.35,0,0,0-1.09-3A2.18,2.18,0,0,0,340.93,72.42Z" style="fill:#263238"></path><path d="M338.82,92l-4.05,1.8a2.18,2.18,0,0,0,2.9,1.21A2.33,2.33,0,0,0,338.82,92Z" style="fill:#9a4a4d"></path><path d="M322.91,75l3.38-2.94a2.16,2.16,0,0,0-3.11-.29A2.36,2.36,0,0,0,322.91,75Z" style="fill:#263238"></path><path d="M324.29,79.78a1.82,1.82,0,1,0,1.7-2A1.85,1.85,0,0,0,324.29,79.78Z" style="fill:#263238"></path><polygon points="333.44 77.5 333.5 88.45 327.68 86.85 333.44 77.5" style="fill:#9a4a4d"></polygon><path d="M368.57,109.88c11.62.61,15.07,6.61,22,18.29,5.6,9.43,20.09,32.63,20.09,32.63,3.66-4.12,19.59-26.63,20.67-28.23,1.2-2.07.9-4.46.84-6.21a43.46,43.46,0,0,1-.68-4.46c-.33-3.7.07-4.78.47-7.88a18,18,0,0,0,.05-3.08,1,1,0,0,1,.21-.73.85.85,0,0,1,.62-.14c1.33.09,1.81.72,2.45,1.89a11.59,11.59,0,0,1,.84,4.19c.1,1.11.13,2.31,1,2.57,1.2.19,1.68-1.12,2-1.75,1.06-2.94,3.69-11.53,5-14.89a4.15,4.15,0,0,1,1.3-2c1.11-.77,2.19-.18,2.49,1.14a3.71,3.71,0,0,1-.05,1.52c-.46,2.6-2.32,9.1-2.65,10.8-.12.62-.23,1.73.37,1.9,1.1.54,2.22-.92,3-2.06,3.19-4.75,4.09-5.72,6.29-8.73a2.18,2.18,0,0,1,2.79-.87,1.72,1.72,0,0,1,.59,2.27c-.27.64-1.1,2.2-1.8,3.43-1.19,2.08-5,8.36-5,8.36,1.5,0,2.93,1.9,2,4.31a4.77,4.77,0,0,1,1.22,5.36c-.87,2.11-2.73,6.06-6,8.16a13.69,13.69,0,0,0-4.8,4.83c-3.06,4.91-10.3,19.24-19.6,33.21-2.73,4.08-6.17,9.14-10,11.28s-9.87-1.34-13.64-5.34c-7.22-7.67-26.72-36.12-26.72-36.12Z" style="fill:#b16668"></path><path d="M368.39,108.69s-8,18,5.32,36.36l10.63,16.29c6.43,0,14-7.78,17.83-15.59,0,0-9.53-15.81-14.43-23.62C383.3,115,378.74,108.68,368.39,108.69Z" style="fill:#BA68C8"></path><path d="M368.39,108.69s-8,18,5.32,36.36l10.63,16.29c6.43,0,14-7.78,17.83-15.59,0,0-9.53-15.81-14.43-23.62C383.3,115,378.74,108.68,368.39,108.69Z" style="opacity:0.1"></path></g></g></svg>