<?xml version="1.0"?>
<svg xmlns="http://www.w3.org/2000/svg" xmlns:xlink="http://www.w3.org/1999/xlink" xmlns:svgjs="http://svgjs.com/svgjs" version="1.1" width="512" height="512" x="0" y="0" viewBox="0 0 512 512" style="enable-background:new 0 0 512 512" xml:space="preserve" class=""><g>
<path xmlns="http://www.w3.org/2000/svg" style="" d="M192.816,405.174h-24.502c-3.414,0-6.181-2.767-6.181-6.181V377.22c0-3.414,2.767-6.181,6.181-6.181  h24.502V405.174z" fill="#ba68c8" data-original="#feb756" class=""/>
<path xmlns="http://www.w3.org/2000/svg" style="" d="M375.663,344.627l-17.262,69.074c-2.4,8.537-7.641,17.068-17.067,17.068H204.801  c-9.426,0-17.068-7.641-17.068-17.068V341L375.663,344.627z" fill="#ba68c8" data-original="#57555c" class=""/>
<path xmlns="http://www.w3.org/2000/svg" style="" d="M355.059,344.627l-17.262,69.074c-2.4,8.537-7.642,17.068-17.067,17.068h20.604  c9.426,0,14.667-8.53,17.067-17.068l17.262-69.074L355.059,344.627L355.059,344.627z" fill="#ba68c8" data-original="#4b494f" class=""/>
<g xmlns="http://www.w3.org/2000/svg">
	<circle style="" cx="221.87" cy="388.1" r="8" fill="#ba68c8" data-original="#c0e3f0" class=""/>
	<circle style="" cx="256" cy="388.1" r="8" fill="#ba68c8" data-original="#c0e3f0" class=""/>
	<circle style="" cx="290.13" cy="388.1" r="8" fill="#ba68c8" data-original="#c0e3f0" class=""/>
	<path style="" d="M366.728,380.378h-42.461c-4.268,0-7.726,3.458-7.726,7.726c0,4.268,3.458,7.726,7.726,7.726h38.6   L366.728,380.378z" fill="#ba68c8" data-original="#c0e3f0" class=""/>
</g>
<polygon xmlns="http://www.w3.org/2000/svg" style="" points="342.263,395.831 362.867,395.831 366.299,382.095 366.728,380.378 346.124,380.378 " fill="#ba68c8" data-original="#a3cfe3" class=""/>
<path xmlns="http://www.w3.org/2000/svg" style="" d="M119.468,330.559L87.46,368.516c-1.33,1.576-3.358,2.386-5.407,2.158l-65.448-7.271  c-4.059-0.451-6.573-4.644-5.057-8.437l34.636-86.681l0.111-84.362L11.546,96.977c-1.515-3.792,0.998-7.986,5.057-8.437  l65.448-7.271c2.05-0.228,4.078,0.582,5.407,2.158l32.008,37.957v209.174H119.468z" fill="#ba68c8" data-original="#feb756" class=""/>
<g xmlns="http://www.w3.org/2000/svg">
	<path style="" d="M87.46,83.429c-1.33-1.576-3.358-2.386-5.407-2.158L66.45,83.004   c0.14,0.137,0.279,0.274,0.406,0.425l40.627,48.436v188.216l-40.627,48.436c-0.128,0.151-0.267,0.288-0.406,0.425l15.603,1.734   c2.05,0.228,4.078-0.582,5.407-2.158l32.008-37.957V121.387L87.46,83.429z" fill="#ba68c8" data-original="#fa8043" class=""/>
	<path style="" d="M37.244,88.259l29.016,74.304c1.192,3.051,4.109,4.917,7.199,4.917c0.934,0,1.885-0.171,2.809-0.532   c3.974-1.552,5.939-6.033,4.387-10.008L52.391,84.565l-15.623,1.736C36.842,86.957,36.992,87.614,37.244,88.259z" fill="#ba68c8" data-original="#fa8043" class=""/>
	<path style="" d="M52.391,367.379l30.059-76.976c1.552-3.974-0.411-8.456-4.387-10.008   c-3.977-1.549-8.455,0.412-10.008,4.387l-30.811,78.904c-0.251,0.645-0.402,1.302-0.475,1.958L52.391,367.379z" fill="#ba68c8" data-original="#fa8043" class=""/>
</g>
<path xmlns="http://www.w3.org/2000/svg" style="" d="M35.982,243.039c14.698,67.35,115.24,119.467,237.085,119.467  C405.026,362.506,512,301.378,512,225.972S405.026,89.438,273.067,89.438c-121.845,0-222.387,52.117-237.085,119.467L35.982,243.039  L35.982,243.039z" fill="#ba68c8" data-original="#4dbbeb" class=""/>
<path xmlns="http://www.w3.org/2000/svg" style="" d="M273.067,89.438c-3.484,0-6.95,0.048-10.398,0.132c127.223,3.057,228.727,62.951,228.727,136.402  S389.892,359.317,262.669,362.374c3.448,0.084,6.913,0.132,10.398,0.132C405.026,362.506,512,301.378,512,225.972  C512,150.566,405.026,89.438,273.067,89.438z" fill="#ba68c8" data-original="#38a1d9" class=""/>
<path xmlns="http://www.w3.org/2000/svg" style="" d="M41.658,243.037c26.521,29.446,120.072,51.202,231.408,51.202  c131.96,0,238.934-30.564,238.934-68.267s-106.974-68.267-238.933-68.267c-111.331,0-204.877,21.755-231.404,51.198L41.658,243.037z  " fill="#ba68c8" data-original="#e4f1fb" class=""/>
<path xmlns="http://www.w3.org/2000/svg" style="" d="M119.467,243.04c9.426,0,17.067-7.641,17.067-17.067s-7.641-17.067-17.067-17.067h-102.4  C7.641,208.906,0,216.546,0,225.973c0,9.426,7.641,17.067,17.067,17.067H119.467z" fill="#ba68c8" data-original="#feb756" class=""/>
<path xmlns="http://www.w3.org/2000/svg" style="" d="M119.467,208.906H98.863c9.426,0,17.067,7.641,17.067,17.067c0,9.426-7.641,17.067-17.067,17.067  h20.604c9.426,0,17.067-7.641,17.067-17.067C136.533,216.546,128.892,208.906,119.467,208.906z" fill="#ba68c8" data-original="#fa8043" class=""/>
<path xmlns="http://www.w3.org/2000/svg" style="" d="M512,225.972c0-11.39-9.775-22.125-27.04-31.566c4.198,10.133,6.437,20.699,6.437,31.566  c0,10.866-2.239,21.433-6.437,31.567C502.225,248.097,512,237.361,512,225.972z" fill="#ba68c8" data-original="#c9e3f7" class=""/>
<g xmlns="http://www.w3.org/2000/svg">
</g>
<g xmlns="http://www.w3.org/2000/svg">
</g>
<g xmlns="http://www.w3.org/2000/svg">
</g>
<g xmlns="http://www.w3.org/2000/svg">
</g>
<g xmlns="http://www.w3.org/2000/svg">
</g>
<g xmlns="http://www.w3.org/2000/svg">
</g>
<g xmlns="http://www.w3.org/2000/svg">
</g>
<g xmlns="http://www.w3.org/2000/svg">
</g>
<g xmlns="http://www.w3.org/2000/svg">
</g>
<g xmlns="http://www.w3.org/2000/svg">
</g>
<g xmlns="http://www.w3.org/2000/svg">
</g>
<g xmlns="http://www.w3.org/2000/svg">
</g>
<g xmlns="http://www.w3.org/2000/svg">
</g>
<g xmlns="http://www.w3.org/2000/svg">
</g>
<g xmlns="http://www.w3.org/2000/svg">
</g>
</g></svg>
